<svg width="134" height="40" viewBox="0 0 134 40" fill="none" xmlns="http://www.w3.org/2000/svg">
<path d="M0.941162 20.1176C0.941162 30.9412 9.88234 39.8823 20.7059 39.8823C31.5294 39.8823 40.4706 30.9412 40.4706 20.1176C40.4706 9.29411 31.5294 0.470581 20.7059 0.470581C9.88234 0.470581 0.941162 9.29411 0.941162 20.1176ZM28 29.2941C23.4117 26.4706 17.5294 25.7647 10.7059 27.2941C9.05881 27.5294 8.82351 25.1765 10.2353 24.9412C17.7647 23.1765 24.1176 24 29.2941 27.1765C30.5882 28 29.2941 30 28 29.2941ZM30 24C24.7059 20.7059 16.5882 19.7647 10.3529 21.6471C8.35293 22.2353 7.64704 19.1765 9.5294 18.7059C16.7059 16.5882 25.5294 17.6471 31.647 21.4118C33.2941 22.4706 31.647 25.0588 30 24ZM9.41175 15.6471C7.41175 16.3529 6.11763 12.9412 8.35293 12.1176C15.2941 9.99999 27.0588 10.3529 34.3529 14.7059C36.3529 15.7647 34.4706 19.0588 32.3529 17.8823C26 14.1176 15.4117 13.7647 9.41175 15.6471ZM54 26.3529C52 26.3529 50.1176 25.6471 48.4706 24C48.3529 24 48.3529 24.1176 48.3529 24.1176L46.4706 26.3529C46.3529 26.4706 46.3529 26.5882 46.4706 26.7059C48.5882 28.5882 51.1765 29.5294 54 29.5294C58 29.5294 60.4706 27.2941 60.4706 24C60.4706 21.1765 58.7059 19.6471 54.5882 18.5882C51.1765 17.7647 50.5882 17.1765 50.5882 16C50.5882 14.8235 51.7647 14.1176 53.2941 14.1176C54.8235 14.1176 56.2353 14.7059 57.8823 15.8823C57.8823 15.8823 58 16 58.1176 16C58.2353 16 58.2353 15.8823 58.2353 15.8823L59.8823 13.5294C60 13.4118 60 13.4118 59.8823 13.2941C58 11.7647 55.7647 10.9412 53.2941 10.9412C49.647 10.9412 47.0588 13.1765 47.0588 16.3529C47.0588 19.7647 49.4117 20.8235 53.1765 21.7647C56.4706 22.4706 56.9412 23.1765 56.9412 24.3529C56.9412 25.6471 55.7647 26.3529 54 26.3529ZM65.1765 17.2941V15.7647C65.1765 15.6471 65.0588 15.5294 64.9412 15.5294H61.8823C61.7647 15.5294 61.647 15.6471 61.647 15.7647V33.0588C61.647 33.1765 61.7647 33.2941 61.8823 33.2941H64.9412C65.0588 33.2941 65.1765 33.1765 65.1765 33.0588V27.6471C66.3529 28.9412 67.647 29.5294 69.4117 29.5294C72.5882 29.5294 75.7647 27.0588 75.7647 22.3529C75.7647 17.6471 72.5882 15.2941 69.4117 15.2941C67.647 15.2941 66.3529 15.8823 65.1765 17.2941ZM68.7059 26.4706C66.5882 26.4706 65.0588 24.7059 65.0588 22.3529C65.0588 20 66.5882 18.3529 68.7059 18.3529C70.8235 18.3529 72.2353 20 72.2353 22.3529C72.2353 24.7059 70.8235 26.4706 68.7059 26.4706ZM76.7059 22.4706C76.7059 26.4706 79.8823 29.5294 84 29.5294C88.1176 29.5294 91.2941 26.3529 91.2941 22.3529C91.2941 18.3529 88.2353 15.2941 84.1176 15.2941C80 15.2941 76.7059 18.4706 76.7059 22.4706ZM80.2353 22.3529C80.2353 20 81.7647 18.3529 84 18.3529C86.2353 18.3529 87.8823 20.1176 87.8823 22.4706C87.8823 24.8235 86.3529 26.4706 84.1176 26.4706C81.8823 26.4706 80.2353 24.7059 80.2353 22.3529ZM96.7059 15.5294V12.1176C96.7059 12 96.7059 11.8823 96.5882 11.8823H93.5294C93.4117 11.8823 93.2941 12 93.2941 12.1176V15.5294H91.7647C91.647 15.5294 91.5294 15.6471 91.5294 15.7647V18.3529C91.5294 18.4706 91.647 18.5882 91.7647 18.5882H93.2941V25.4118C93.2941 28.1176 94.5882 29.5294 97.2941 29.5294C98.3529 29.5294 99.4117 29.2941 100.235 28.8235C100.353 28.8235 100.353 28.7059 100.353 28.5882V26.1176C100.353 26 100.353 25.8823 100.235 25.8823H100C99.4117 26.2353 98.7059 26.3529 98.1176 26.3529C97.1765 26.3529 96.7059 25.8823 96.7059 24.9412V18.5882H100.235C100.353 18.5882 100.471 18.4706 100.471 18.3529V15.7647C100.471 15.6471 100.353 15.5294 100.235 15.5294H96.7059ZM111.882 15.1765C111.882 13.8823 112.353 13.4118 113.412 13.4118C114 13.4118 114.588 13.4118 115.176 13.6471H115.294C115.294 13.6471 115.412 13.5294 115.412 13.4118V10.9412C115.412 10.8235 115.412 10.7059 115.294 10.7059C114.706 10.4706 113.882 10.3529 112.706 10.3529C109.882 10.3529 108.471 12 108.471 14.9412V15.5294H106.941C106.824 15.5294 106.706 15.6471 106.706 15.7647V18.3529C106.706 18.4706 106.824 18.5882 106.941 18.5882H108.471V29.0588C108.471 29.1765 108.588 29.2941 108.706 29.2941H111.765C111.882 29.2941 111.882 29.1765 111.882 29.0588V18.5882H114.824L119.176 29.0588C118.706 30.1176 118.235 30.3529 117.529 30.3529C116.941 30.3529 116.353 30.2353 115.765 29.8823H115.647L115.529 30L114.471 32.2353C114.471 32.3529 114.471 32.5882 114.588 32.5882C115.647 33.1765 116.588 33.4118 117.765 33.4118C120 33.4118 121.294 32.3529 122.353 29.5294L127.647 15.8823V15.6471C127.647 15.5294 127.529 15.5294 127.412 15.5294H124.235C124.118 15.5294 124.118 15.6471 124.118 15.7647L120.824 24.9412L117.294 15.7647C117.294 15.6471 117.176 15.5294 117.059 15.5294H111.882V15.1765ZM102.118 15.5294C102 15.5294 101.882 15.6471 101.882 15.7647V29.0588C101.882 29.1765 102 29.2941 102.118 29.2941H105.176C105.294 29.2941 105.294 29.1765 105.294 29.0588V15.7647C105.294 15.6471 105.294 15.5294 105.176 15.5294H102.118ZM101.412 11.6471C101.412 12.8235 102.471 13.8823 103.647 13.8823C104.824 13.8823 105.765 12.8235 105.765 11.6471C105.765 10.4706 104.824 9.5294 103.647 9.5294C102.471 9.5294 101.412 10.4706 101.412 11.6471ZM130.235 19.7647C131.412 19.7647 132.471 18.8235 132.471 17.6471C132.471 16.4706 131.412 15.5294 130.235 15.5294C129.059 15.5294 128.118 16.4706 128.118 17.6471C128.118 18.8235 129.059 19.7647 130.235 19.7647ZM130.235 15.7647C131.294 15.7647 132.235 16.5882 132.235 17.6471C132.235 18.7059 131.294 19.5294 130.235 19.5294C129.176 19.5294 128.353 18.7059 128.353 17.6471C128.353 16.5882 129.176 15.7647 130.235 15.7647ZM130.706 17.8823C131.059 17.7647 131.294 17.5294 131.294 17.1765C131.294 16.7059 130.824 16.4706 130.353 16.4706H129.412V18.7059H129.882V18H130.353L130.824 18.7059H131.412L130.706 17.8823ZM130.353 16.8235C130.588 16.8235 130.824 16.9412 130.824 17.1765C130.824 17.4118 130.588 17.5294 130.353 17.5294H129.882V16.8235H130.353Z" fill="white"/>
</svg>
